# xmcd CD database file
#
# Track frame offsets:
#	150
#	17530
#	39948
#	56273
#	69189
#	89489
#	119634
#	135921
#	157738
#	172535
#	190713
#	205419
#	224633
#	235153
#	252344
#	269439
#
# Disc length: 3923 seconds
#
# Revision: 3
# Processed by: cddbd v1.5.2PL0 Copyright (c) Steve Scherf et al.
# Submitted via: CDex 1.70beta2
#
DISCID=cf0f5110
DTITLE=Celtic Woman - Songs From The Heart - TOCP-70850
DYEAR=2010
DGENRE=Classical
TTITLE0=Fields of Gold
TTITLE1=Amazing Grace
TTITLE2=Níl Sé'n Lá
TTITLE3=My Lagan Love
TTITLE4=When You Believe
TTITLE5=The New Ground - Isle of Hope, Isle of Tears
TTITLE6=The Coast of Galiçia
TTITLE7=Non C'è Più
TTITLE8=The Moon's a Harsh Mistress
TTITLE9=You'll Be In My Heart
TTITLE10=Goodnight My Angel
TTITLE11=Galway Bay
TTITLE12=The Lost Rose Fantasia
TTITLE13=O, America!
TTITLE14=Pie Jesu [Live]
TTITLE15=You Raise Me Up [Live]
EXTD=YEAR: 2010
EXTT0=
EXTT1=
EXTT2=
EXTT3=
EXTT4=
EXTT5=
EXTT6=
EXTT7=
EXTT8=
EXTT9=
EXTT10=
EXTT11=
EXTT12=
EXTT13=
EXTT14=
EXTT15=
PLAYORDER=
